<?xml version="1.0" encoding="UTF-8" standalone="no"?>
<!DOCTYPE svg PUBLIC "-//W3C//DTD SVG 1.1//EN"
 "http://www.w3.org/Graphics/SVG/1.1/DTD/svg11.dtd">
<!-- Generated by graphviz version 2.40.1 (20161225.0304)
 -->
<!-- Title: source tree Pages: 1 -->
<svg width="928pt" height="468pt"
 viewBox="0.00 0.00 927.98 467.50" xmlns="http://www.w3.org/2000/svg" xmlns:xlink="http://www.w3.org/1999/xlink">
<g id="graph0" class="graph" transform="scale(1 1) rotate(0) translate(4 463.5)">
<title>source tree</title>
<polygon fill="#ffffff" stroke="transparent" points="-4,4 -4,-463.5 923.9804,-463.5 923.9804,4 -4,4"/>
<!-- event_filter -->
<g id="node1" class="node">
<title>event_filter</title>
<ellipse fill="none" stroke="#000000" cx="219.594" cy="-164" rx="51.1914" ry="18"/>
<text text-anchor="middle" x="219.594" y="-160.3" font-family="Times,serif" font-size="14.00" fill="#000000">event_filter</text>
</g>
<!-- every_so_often -->
<g id="node2" class="node">
<title>every_so_often</title>
<ellipse fill="none" stroke="#000000" cx="219.594" cy="-33" rx="64.9885" ry="18"/>
<text text-anchor="middle" x="219.594" y="-29.3" font-family="Times,serif" font-size="14.00" fill="#000000">every_so_often</text>
</g>
<!-- event_filter&#45;&gt;every_so_often -->
<g id="edge1" class="edge">
<title>event_filter&#45;&gt;every_so_often</title>
<path fill="none" stroke="#000000" d="M219.594,-145.785C219.594,-123.8856 219.594,-86.8861 219.594,-61.2663"/>
<polygon fill="#000000" stroke="#000000" points="223.0941,-61.0603 219.594,-51.0603 216.0941,-61.0603 223.0941,-61.0603"/>
</g>
<!-- lib -->
<g id="node3" class="node">
<title>lib</title>
<ellipse fill="none" stroke="#000000" cx="766.594" cy="-427" rx="27" ry="18"/>
<text text-anchor="middle" x="766.594" y="-423.3" font-family="Times,serif" font-size="14.00" fill="#000000">lib</text>
</g>
<!-- quarantined_awaiting_warning_fixes -->
<g id="node4" class="node">
<title>quarantined_awaiting_warning_fixes</title>
<ellipse fill="none" stroke="#000000" cx="766.594" cy="-295" rx="141.8751" ry="18"/>
<text text-anchor="middle" x="766.594" y="-291.3" font-family="Times,serif" font-size="14.00" fill="#000000">quarantined_awaiting_warning_fixes</text>
</g>
<!-- lib&#45;&gt;quarantined_awaiting_warning_fixes -->
<g id="edge2" class="edge">
<title>lib&#45;&gt;quarantined_awaiting_warning_fixes</title>
<path fill="none" stroke="#000000" d="M766.594,-408.9227C766.594,-386.9282 766.594,-349.5282 766.594,-323.6093"/>
<polygon fill="#000000" stroke="#000000" points="770.0941,-323.2825 766.594,-313.2825 763.0941,-323.2826 770.0941,-323.2825"/>
</g>
<!-- sample_header_exempt_from_warnings -->
<g id="node9" class="node">
<title>sample_header_exempt_from_warnings</title>
<ellipse fill="none" stroke="#000000" cx="766.594" cy="-164" rx="153.2729" ry="18"/>
<text text-anchor="middle" x="766.594" y="-160.3" font-family="Times,serif" font-size="14.00" fill="#000000">sample_header_exempt_from_warnings</text>
</g>
<!-- quarantined_awaiting_warning_fixes&#45;&gt;sample_header_exempt_from_warnings -->
<g id="edge6" class="edge">
<title>quarantined_awaiting_warning_fixes&#45;&gt;sample_header_exempt_from_warnings</title>
<path fill="none" stroke="#000000" d="M766.594,-276.785C766.594,-254.8856 766.594,-217.8861 766.594,-192.2663"/>
<polygon fill="#000000" stroke="#000000" points="770.0941,-192.0603 766.594,-182.0603 763.0941,-192.0603 770.0941,-192.0603"/>
</g>
<!-- main -->
<g id="node5" class="node">
<title>main</title>
<ellipse fill="none" stroke="#000000" cx="186.594" cy="-427" rx="28.6953" ry="18"/>
<text text-anchor="middle" x="186.594" y="-423.3" font-family="Times,serif" font-size="14.00" fill="#000000">main</text>
</g>
<!-- ios_log_redirect -->
<g id="node6" class="node">
<title>ios_log_redirect</title>
<ellipse fill="none" stroke="#000000" cx="67.594" cy="-295" rx="67.6881" ry="18"/>
<text text-anchor="middle" x="67.594" y="-291.3" font-family="Times,serif" font-size="14.00" fill="#000000">ios_log_redirect</text>
</g>
<!-- main&#45;&gt;ios_log_redirect -->
<g id="edge3" class="edge">
<title>main&#45;&gt;ios_log_redirect</title>
<path fill="none" stroke="#000000" d="M172.4758,-411.3395C152.1912,-388.8389 114.5813,-347.1204 90.344,-320.2353"/>
<polygon fill="#000000" stroke="#000000" points="92.8823,-317.8238 83.5869,-312.74 87.6832,-322.5109 92.8823,-317.8238"/>
</g>
<!-- logger -->
<g id="node7" class="node">
<title>logger</title>
<ellipse fill="none" stroke="#000000" cx="186.594" cy="-295" rx="33.2948" ry="18"/>
<text text-anchor="middle" x="186.594" y="-291.3" font-family="Times,serif" font-size="14.00" fill="#000000">logger</text>
</g>
<!-- main&#45;&gt;logger -->
<g id="edge4" class="edge">
<title>main&#45;&gt;logger</title>
<path fill="none" stroke="#000000" d="M186.594,-408.9227C186.594,-386.9282 186.594,-349.5282 186.594,-323.6093"/>
<polygon fill="#000000" stroke="#000000" points="190.0941,-323.2825 186.594,-313.2825 183.0941,-323.2826 190.0941,-323.2825"/>
</g>
<!-- view_model_collection -->
<g id="node8" class="node">
<title>view_model_collection</title>
<ellipse fill="none" stroke="#000000" cx="331.594" cy="-295" rx="93.6835" ry="18"/>
<text text-anchor="middle" x="331.594" y="-291.3" font-family="Times,serif" font-size="14.00" fill="#000000">view_model_collection</text>
</g>
<!-- main&#45;&gt;view_model_collection -->
<g id="edge5" class="edge">
<title>main&#45;&gt;view_model_collection</title>
<path fill="none" stroke="#000000" d="M202.9455,-412.1145C227.5576,-389.709 274.4139,-347.0536 304.2723,-319.8722"/>
<polygon fill="#000000" stroke="#000000" points="306.803,-322.3014 311.8417,-312.9814 302.0907,-317.1251 306.803,-322.3014"/>
</g>
<!-- view_model_collection&#45;&gt;event_filter -->
<g id="edge7" class="edge">
<title>view_model_collection&#45;&gt;event_filter</title>
<path fill="none" stroke="#000000" d="M316.2557,-277.0597C296.7943,-254.2968 263.1177,-214.9071 241.0978,-189.1518"/>
<polygon fill="#000000" stroke="#000000" points="243.5495,-186.6334 234.3909,-181.3071 238.229,-191.1823 243.5495,-186.6334"/>
</g>
<!-- gui_tests -->
<g id="node10" class="node">
<title>gui_tests</title>
<ellipse fill="none" stroke="#000000" cx="331.594" cy="-164" rx="42.4939" ry="18"/>
<text text-anchor="middle" x="331.594" y="-160.3" font-family="Times,serif" font-size="14.00" fill="#000000">gui_tests</text>
</g>
<!-- view_model_collection&#45;&gt;gui_tests -->
<g id="edge8" class="edge">
<title>view_model_collection&#45;&gt;gui_tests</title>
<path fill="none" stroke="#000000" d="M331.594,-276.785C331.594,-254.8856 331.594,-217.8861 331.594,-192.2663"/>
<polygon fill="#000000" stroke="#000000" points="335.0941,-192.0603 331.594,-182.0603 328.0941,-192.0603 335.0941,-192.0603"/>
</g>
<!-- qml_message_interceptor -->
<g id="node11" class="node">
<title>qml_message_interceptor</title>
<ellipse fill="none" stroke="#000000" cx="493.594" cy="-164" rx="102.0819" ry="18"/>
<text text-anchor="middle" x="493.594" y="-160.3" font-family="Times,serif" font-size="14.00" fill="#000000">qml_message_interceptor</text>
</g>
<!-- view_model_collection&#45;&gt;qml_message_interceptor -->
<g id="edge9" class="edge">
<title>view_model_collection&#45;&gt;qml_message_interceptor</title>
<path fill="none" stroke="#000000" d="M353.442,-277.3328C381.9038,-254.3174 431.7901,-213.9772 463.7296,-188.1496"/>
<polygon fill="#000000" stroke="#000000" points="466.2589,-190.6055 471.834,-181.596 461.8574,-185.1624 466.2589,-190.6055"/>
</g>
</g>
</svg>
