<?xml version="1.0" encoding="UTF-8" standalone="no"?>
<!DOCTYPE svg PUBLIC "-//W3C//DTD SVG 1.1//EN"
 "http://www.w3.org/Graphics/SVG/1.1/DTD/svg11.dtd">
<!-- Generated by graphviz version 2.40.1 (20161225.0304)
 -->
<!-- Title: source tree Pages: 1 -->
<svg width="576pt" height="718pt"
 viewBox="0.00 0.00 576.00 718.02" xmlns="http://www.w3.org/2000/svg" xmlns:xlink="http://www.w3.org/1999/xlink">
<g id="graph0" class="graph" transform="scale(.7437 .7437) rotate(0) translate(4 961.5)">
<title>source tree</title>
<polygon fill="#ffffff" stroke="transparent" points="-4,4 -4,-961.5 770.5334,-961.5 770.5334,4 -4,4"/>
<!-- event_filter -->
<g id="node1" class="node">
<title>event_filter</title>
<ellipse fill="none" stroke="#000000" cx="66.1471" cy="-342" rx="51.1914" ry="18"/>
<text text-anchor="middle" x="66.1471" y="-338.3" font-family="Times,serif" font-size="14.00" fill="#000000">event_filter</text>
</g>
<!-- every_so_often -->
<g id="node2" class="node">
<title>every_so_often</title>
<ellipse fill="none" stroke="#000000" cx="66.1471" cy="-68" rx="64.9885" ry="18"/>
<text text-anchor="middle" x="66.1471" y="-64.3" font-family="Times,serif" font-size="14.00" fill="#000000">every_so_often</text>
</g>
<!-- event_filter&#45;&gt;every_so_often -->
<g id="edge1" class="edge">
<title>event_filter&#45;&gt;every_so_often</title>
<path fill="none" stroke="#000000" d="M66.1471,-323.5966C66.1471,-276.801 66.1471,-152.9945 66.1471,-96.6499"/>
<polygon fill="#000000" stroke="#000000" points="69.6472,-96.3232 66.1471,-86.3233 62.6472,-96.3233 69.6472,-96.3232"/>
</g>
<!-- lib -->
<g id="node3" class="node">
<title>lib</title>
<ellipse fill="none" stroke="#000000" cx="613.1471" cy="-889" rx="27" ry="18"/>
<text text-anchor="middle" x="613.1471" y="-885.3" font-family="Times,serif" font-size="14.00" fill="#000000">lib</text>
</g>
<!-- quarantined_awaiting_warning_fixes -->
<g id="node4" class="node">
<title>quarantined_awaiting_warning_fixes</title>
<ellipse fill="none" stroke="#000000" cx="613.1471" cy="-616" rx="141.8751" ry="18"/>
<text text-anchor="middle" x="613.1471" y="-612.3" font-family="Times,serif" font-size="14.00" fill="#000000">quarantined_awaiting_warning_fixes</text>
</g>
<!-- lib&#45;&gt;quarantined_awaiting_warning_fixes -->
<g id="edge2" class="edge">
<title>lib&#45;&gt;quarantined_awaiting_warning_fixes</title>
<path fill="none" stroke="#000000" d="M613.1471,-870.6638C613.1471,-824.039 613.1471,-700.6843 613.1471,-644.5453"/>
<polygon fill="#000000" stroke="#000000" points="616.6472,-644.2564 613.1471,-634.2564 609.6472,-644.2564 616.6472,-644.2564"/>
</g>
<!-- sample_header_exempt_from_warnings -->
<g id="node8" class="node">
<title>sample_header_exempt_from_warnings</title>
<ellipse fill="none" stroke="#000000" cx="613.1471" cy="-342" rx="153.2729" ry="18"/>
<text text-anchor="middle" x="613.1471" y="-338.3" font-family="Times,serif" font-size="14.00" fill="#000000">sample_header_exempt_from_warnings</text>
</g>
<!-- quarantined_awaiting_warning_fixes&#45;&gt;sample_header_exempt_from_warnings -->
<g id="edge5" class="edge">
<title>quarantined_awaiting_warning_fixes&#45;&gt;sample_header_exempt_from_warnings</title>
<path fill="none" stroke="#000000" d="M613.1471,-597.5966C613.1471,-550.801 613.1471,-426.9945 613.1471,-370.6499"/>
<polygon fill="#000000" stroke="#000000" points="616.6472,-370.3232 613.1471,-360.3233 609.6472,-370.3233 616.6472,-370.3232"/>
</g>
<!-- main -->
<g id="node5" class="node">
<title>main</title>
<ellipse fill="none" stroke="#000000" cx="106.1471" cy="-889" rx="28.6953" ry="18"/>
<text text-anchor="middle" x="106.1471" y="-885.3" font-family="Times,serif" font-size="14.00" fill="#000000">main</text>
</g>
<!-- logger -->
<g id="node6" class="node">
<title>logger</title>
<ellipse fill="none" stroke="#000000" cx="33.1471" cy="-616" rx="33.2948" ry="18"/>
<text text-anchor="middle" x="33.1471" y="-612.3" font-family="Times,serif" font-size="14.00" fill="#000000">logger</text>
</g>
<!-- main&#45;&gt;logger -->
<g id="edge3" class="edge">
<title>main&#45;&gt;logger</title>
<path fill="none" stroke="#000000" d="M101.3573,-871.0877C88.931,-824.6168 55.5874,-699.9209 40.6107,-643.9121"/>
<polygon fill="#000000" stroke="#000000" points="43.9189,-642.7347 37.9544,-633.9782 37.1565,-644.543 43.9189,-642.7347"/>
</g>
<!-- view_model_collection -->
<g id="node7" class="node">
<title>view_model_collection</title>
<ellipse fill="none" stroke="#000000" cx="178.1471" cy="-616" rx="93.6835" ry="18"/>
<text text-anchor="middle" x="178.1471" y="-612.3" font-family="Times,serif" font-size="14.00" fill="#000000">view_model_collection</text>
</g>
<!-- main&#45;&gt;view_model_collection -->
<g id="edge4" class="edge">
<title>main&#45;&gt;view_model_collection</title>
<path fill="none" stroke="#000000" d="M110.8712,-871.0877C123.1273,-824.6168 156.0141,-699.9209 170.7856,-643.9121"/>
<polygon fill="#000000" stroke="#000000" points="174.2396,-644.5402 173.4055,-633.9782 167.471,-642.755 174.2396,-644.5402"/>
</g>
<!-- view_model_collection&#45;&gt;event_filter -->
<g id="edge6" class="edge">
<title>view_model_collection&#45;&gt;event_filter</title>
<path fill="none" stroke="#000000" d="M170.7984,-598.0221C151.6542,-551.187 100.1502,-425.1861 77.313,-369.3168"/>
<polygon fill="#000000" stroke="#000000" points="80.5463,-367.9763 73.5227,-360.0441 74.0667,-370.625 80.5463,-367.9763"/>
</g>
<!-- gui_tests -->
<g id="node9" class="node">
<title>gui_tests</title>
<ellipse fill="none" stroke="#000000" cx="178.1471" cy="-342" rx="42.4939" ry="18"/>
<text text-anchor="middle" x="178.1471" y="-338.3" font-family="Times,serif" font-size="14.00" fill="#000000">gui_tests</text>
</g>
<!-- view_model_collection&#45;&gt;gui_tests -->
<g id="edge7" class="edge">
<title>view_model_collection&#45;&gt;gui_tests</title>
<path fill="none" stroke="#000000" d="M178.1471,-597.5966C178.1471,-550.801 178.1471,-426.9945 178.1471,-370.6499"/>
<polygon fill="#000000" stroke="#000000" points="181.6472,-370.3232 178.1471,-360.3233 174.6472,-370.3233 181.6472,-370.3232"/>
</g>
<!-- qml_message_interceptor -->
<g id="node10" class="node">
<title>qml_message_interceptor</title>
<ellipse fill="none" stroke="#000000" cx="340.1471" cy="-342" rx="102.0819" ry="18"/>
<text text-anchor="middle" x="340.1471" y="-338.3" font-family="Times,serif" font-size="14.00" fill="#000000">qml_message_interceptor</text>
</g>
<!-- view_model_collection&#45;&gt;qml_message_interceptor -->
<g id="edge8" class="edge">
<title>view_model_collection&#45;&gt;qml_message_interceptor</title>
<path fill="none" stroke="#000000" d="M188.7763,-598.0221C216.5245,-551.09 291.2727,-424.6641 324.2009,-368.9706"/>
<polygon fill="#000000" stroke="#000000" points="327.402,-370.4334 329.4786,-360.0441 321.3764,-366.8708 327.402,-370.4334"/>
</g>
</g>
</svg>
