<?xml version="1.0" encoding="UTF-8" standalone="no"?>
<!DOCTYPE svg PUBLIC "-//W3C//DTD SVG 1.1//EN"
 "http://www.w3.org/Graphics/SVG/1.1/DTD/svg11.dtd">
<!-- Generated by graphviz version 2.43.0 (0)
 -->
<!-- Title: source tree Pages: 1 -->
<svg width="834pt" height="421pt"
 viewBox="0.00 0.00 833.88 420.50" xmlns="http://www.w3.org/2000/svg" xmlns:xlink="http://www.w3.org/1999/xlink">
<g id="graph0" class="graph" transform="scale(1 1) rotate(0) translate(4 416.5)">
<title>source tree</title>
<polygon fill="white" stroke="transparent" points="-4,4 -4,-416.5 829.88,-416.5 829.88,4 -4,4"/>
<!-- event_filter -->
<g id="node1" class="node">
<title>event_filter</title>
<ellipse fill="none" stroke="black" cx="202.84" cy="-206" rx="63.89" ry="18"/>
<text text-anchor="middle" x="202.84" y="-202.3" font-family="Times,serif" font-size="14.00">event_filter</text>
</g>
<!-- every_so_often -->
<g id="node2" class="node">
<title>every_so_often</title>
<ellipse fill="none" stroke="black" cx="165.84" cy="-115" rx="79.09" ry="18"/>
<text text-anchor="middle" x="165.84" y="-111.3" font-family="Times,serif" font-size="14.00">every_so_often</text>
</g>
<!-- event_filter&#45;&gt;every_so_often -->
<g id="edge1" class="edge">
<title>event_filter&#45;&gt;every_so_often</title>
<path fill="none" stroke="black" d="M195.71,-187.84C190.39,-175.04 183.01,-157.3 176.92,-142.65"/>
<polygon fill="black" stroke="black" points="180.03,-141 172.95,-133.11 173.56,-143.68 180.03,-141"/>
</g>
<!-- lib -->
<g id="node3" class="node">
<title>lib</title>
<ellipse fill="none" stroke="black" cx="348.84" cy="-206" rx="27" ry="18"/>
<text text-anchor="middle" x="348.84" y="-202.3" font-family="Times,serif" font-size="14.00">lib</text>
</g>
<!-- example_shared -->
<g id="node4" class="node">
<title>example_shared</title>
<ellipse fill="none" stroke="black" cx="348.84" cy="-115" rx="85.59" ry="18"/>
<text text-anchor="middle" x="348.84" y="-111.3" font-family="Times,serif" font-size="14.00">example_shared</text>
</g>
<!-- lib&#45;&gt;example_shared -->
<g id="edge2" class="edge">
<title>lib&#45;&gt;example_shared</title>
<path fill="none" stroke="black" d="M348.84,-187.84C348.84,-175.28 348.84,-157.98 348.84,-143.5"/>
<polygon fill="black" stroke="black" points="352.34,-143.11 348.84,-133.11 345.34,-143.11 352.34,-143.11"/>
</g>
<!-- quarantined_awaiting_warning_fixes -->
<g id="node5" class="node">
<title>quarantined_awaiting_warning_fixes</title>
<ellipse fill="none" stroke="black" cx="632.84" cy="-115" rx="180.07" ry="18"/>
<text text-anchor="middle" x="632.84" y="-111.3" font-family="Times,serif" font-size="14.00">quarantined_awaiting_warning_fixes</text>
</g>
<!-- lib&#45;&gt;quarantined_awaiting_warning_fixes -->
<g id="edge3" class="edge">
<title>lib&#45;&gt;quarantined_awaiting_warning_fixes</title>
<path fill="none" stroke="black" d="M369.92,-194.36C374.76,-192.11 379.93,-189.86 384.84,-188 441.94,-166.39 508.46,-147.39 558.23,-134.35"/>
<polygon fill="black" stroke="black" points="559.16,-137.73 567.95,-131.82 557.39,-130.95 559.16,-137.73"/>
</g>
<!-- sample_header_exempt_from_warnings -->
<g id="node10" class="node">
<title>sample_header_exempt_from_warnings</title>
<ellipse fill="none" stroke="black" cx="632.84" cy="-23" rx="193.07" ry="18"/>
<text text-anchor="middle" x="632.84" y="-19.3" font-family="Times,serif" font-size="14.00">sample_header_exempt_from_warnings</text>
</g>
<!-- quarantined_awaiting_warning_fixes&#45;&gt;sample_header_exempt_from_warnings -->
<g id="edge7" class="edge">
<title>quarantined_awaiting_warning_fixes&#45;&gt;sample_header_exempt_from_warnings</title>
<path fill="none" stroke="black" d="M632.84,-96.65C632.84,-83.82 632.84,-66.11 632.84,-51.38"/>
<polygon fill="black" stroke="black" points="636.34,-51.3 632.84,-41.3 629.34,-51.3 636.34,-51.3"/>
</g>
<!-- main -->
<g id="node6" class="node">
<title>main</title>
<ellipse fill="none" stroke="black" cx="225.84" cy="-390" rx="33.6" ry="18"/>
<text text-anchor="middle" x="225.84" y="-386.3" font-family="Times,serif" font-size="14.00">main</text>
</g>
<!-- ios_log_redirect -->
<g id="node7" class="node">
<title>ios_log_redirect</title>
<ellipse fill="none" stroke="black" cx="83.84" cy="-298" rx="83.69" ry="18"/>
<text text-anchor="middle" x="83.84" y="-294.3" font-family="Times,serif" font-size="14.00">ios_log_redirect</text>
</g>
<!-- main&#45;&gt;ios_log_redirect -->
<g id="edge4" class="edge">
<title>main&#45;&gt;ios_log_redirect</title>
<path fill="none" stroke="black" d="M204.89,-375.72C182.16,-361.31 145.49,-338.07 118.46,-320.94"/>
<polygon fill="black" stroke="black" points="120.02,-317.79 109.7,-315.39 116.27,-323.7 120.02,-317.79"/>
</g>
<!-- logger -->
<g id="node8" class="node">
<title>logger</title>
<ellipse fill="none" stroke="black" cx="225.84" cy="-298" rx="40.09" ry="18"/>
<text text-anchor="middle" x="225.84" y="-294.3" font-family="Times,serif" font-size="14.00">logger</text>
</g>
<!-- main&#45;&gt;logger -->
<g id="edge5" class="edge">
<title>main&#45;&gt;logger</title>
<path fill="none" stroke="black" d="M225.84,-371.65C225.84,-358.82 225.84,-341.11 225.84,-326.38"/>
<polygon fill="black" stroke="black" points="229.34,-326.3 225.84,-316.3 222.34,-326.3 229.34,-326.3"/>
</g>
<!-- view_model_collection -->
<g id="node9" class="node">
<title>view_model_collection</title>
<ellipse fill="none" stroke="black" cx="397.84" cy="-298" rx="113.98" ry="18"/>
<text text-anchor="middle" x="397.84" y="-294.3" font-family="Times,serif" font-size="14.00">view_model_collection</text>
</g>
<!-- main&#45;&gt;view_model_collection -->
<g id="edge6" class="edge">
<title>main&#45;&gt;view_model_collection</title>
<path fill="none" stroke="black" d="M249.04,-376.86C276.78,-362.35 323.7,-337.8 357.44,-320.14"/>
<polygon fill="black" stroke="black" points="359.34,-323.1 366.58,-315.36 356.1,-316.89 359.34,-323.1"/>
</g>
<!-- view_model_collection&#45;&gt;event_filter -->
<g id="edge9" class="edge">
<title>view_model_collection&#45;&gt;event_filter</title>
<path fill="none" stroke="black" d="M362.53,-280.7C329.22,-265.33 279.3,-242.29 244.16,-226.07"/>
<polygon fill="black" stroke="black" points="245.21,-222.7 234.66,-221.69 242.28,-229.06 245.21,-222.7"/>
</g>
<!-- view_model_collection&#45;&gt;lib -->
<g id="edge11" class="edge">
<title>view_model_collection&#45;&gt;lib</title>
<path fill="none" stroke="black" d="M388.39,-279.65C381.03,-266.11 370.69,-247.13 362.43,-231.96"/>
<polygon fill="black" stroke="black" points="365.46,-230.2 357.6,-223.09 359.31,-233.55 365.46,-230.2"/>
</g>
<!-- gui_tests -->
<g id="node13" class="node">
<title>gui_tests</title>
<ellipse fill="none" stroke="black" cx="446.84" cy="-206" rx="52.79" ry="18"/>
<text text-anchor="middle" x="446.84" y="-202.3" font-family="Times,serif" font-size="14.00">gui_tests</text>
</g>
<!-- view_model_collection&#45;&gt;gui_tests -->
<g id="edge10" class="edge">
<title>view_model_collection&#45;&gt;gui_tests</title>
<path fill="none" stroke="black" d="M407.29,-279.65C414.52,-266.36 424.61,-247.84 432.79,-232.82"/>
<polygon fill="black" stroke="black" points="435.88,-234.45 437.59,-223.99 429.73,-231.1 435.88,-234.45"/>
</g>
<!-- qml_message_interceptor -->
<g id="node14" class="node">
<title>qml_message_interceptor</title>
<ellipse fill="none" stroke="black" cx="647.84" cy="-206" rx="129.98" ry="18"/>
<text text-anchor="middle" x="647.84" y="-202.3" font-family="Times,serif" font-size="14.00">qml_message_interceptor</text>
</g>
<!-- view_model_collection&#45;&gt;qml_message_interceptor -->
<g id="edge12" class="edge">
<title>view_model_collection&#45;&gt;qml_message_interceptor</title>
<path fill="none" stroke="black" d="M441.39,-281.32C483.84,-266.04 548.48,-242.77 594.1,-226.35"/>
<polygon fill="black" stroke="black" points="595.31,-229.63 603.53,-222.95 592.94,-223.05 595.31,-229.63"/>
</g>
<!-- timer_service_test -->
<g id="node11" class="node">
<title>timer_service_test</title>
<ellipse fill="none" stroke="black" cx="602.84" cy="-390" rx="96.38" ry="18"/>
<text text-anchor="middle" x="602.84" y="-386.3" font-family="Times,serif" font-size="14.00">timer_service_test</text>
</g>
<!-- timer_service -->
<g id="node12" class="node">
<title>timer_service</title>
<ellipse fill="none" stroke="black" cx="602.84" cy="-298" rx="73.39" ry="18"/>
<text text-anchor="middle" x="602.84" y="-294.3" font-family="Times,serif" font-size="14.00">timer_service</text>
</g>
<!-- timer_service_test&#45;&gt;timer_service -->
<g id="edge8" class="edge">
<title>timer_service_test&#45;&gt;timer_service</title>
<path fill="none" stroke="black" d="M602.84,-371.65C602.84,-358.82 602.84,-341.11 602.84,-326.38"/>
<polygon fill="black" stroke="black" points="606.34,-326.3 602.84,-316.3 599.34,-326.3 606.34,-326.3"/>
</g>
</g>
</svg>
