<?xml version="1.0" encoding="UTF-8" standalone="no"?>
<!DOCTYPE svg PUBLIC "-//W3C//DTD SVG 1.1//EN"
 "http://www.w3.org/Graphics/SVG/1.1/DTD/svg11.dtd">
<!-- Generated by graphviz version 2.43.0 (0)
 -->
<!-- Title: source tree Pages: 1 -->
<svg width="1518pt" height="763pt"
 viewBox="0.00 0.00 1518.00 763.00" xmlns="http://www.w3.org/2000/svg" xmlns:xlink="http://www.w3.org/1999/xlink">
<g id="graph0" class="graph" transform="scale(1 1) rotate(0) translate(4 759)">
<title>source tree</title>
<polygon fill="white" stroke="transparent" points="-4,4 -4,-759 1514,-759 1514,4 -4,4"/>
<g id="clust1" class="cluster">
<title>cluster_box_dir_lib_app</title>
<polygon fill="none" stroke="black" points="8,-18.3 8,-393.52 522,-393.52 522,-18.3 8,-18.3"/>
<text text-anchor="middle" x="265" y="-376.72" font-family="Helvetica,sans-Serif" font-size="16.00">lib_app</text>
</g>
<g id="clust2" class="cluster">
<title>cluster_box_dir_app</title>
<polygon fill="none" stroke="black" points="724,-215.06 724,-736.7 991,-736.7 991,-215.06 724,-215.06"/>
<text text-anchor="middle" x="857.5" y="-719.9" font-family="Helvetica,sans-Serif" font-size="16.00">app</text>
</g>
<g id="clust3" class="cluster">
<title>cluster_box_dir_util</title>
<polygon fill="none" stroke="black" points="737,-18.3 737,-196.76 1502,-196.76 1502,-18.3 737,-18.3"/>
<text text-anchor="middle" x="1119.5" y="-179.96" font-family="Helvetica,sans-Serif" font-size="16.00">util</text>
</g>
<g id="clust4" class="cluster">
<title>cluster_box_dir_lib_example_shared</title>
<polygon fill="none" stroke="black" points="530,-18.3 530,-196.76 718,-196.76 718,-18.3 530,-18.3"/>
<text text-anchor="middle" x="624" y="-179.96" font-family="Helvetica,sans-Serif" font-size="16.00">lib_example_shared</text>
</g>
<g id="clust5" class="cluster">
<title>cluster_box_dir_libstyles</title>
<polygon fill="none" stroke="black" points="530,-215.06 530,-393.52 716,-393.52 716,-215.06 530,-215.06"/>
<text text-anchor="middle" x="623" y="-376.72" font-family="Helvetica,sans-Serif" font-size="16.00">libstyles</text>
</g>
<g id="clust6" class="cluster">
<title>cluster_box_dir_tests</title>
<polygon fill="none" stroke="black" points="999,-215.06 999,-393.52 1207,-393.52 1207,-215.06 999,-215.06"/>
<text text-anchor="middle" x="1103" y="-376.72" font-family="Helvetica,sans-Serif" font-size="16.00">tests</text>
</g>
<!-- cli_options -->
<g id="node1" class="node">
<title>cli_options</title>
<ellipse fill="none" stroke="black" cx="76" cy="-77.3" rx="59.59" ry="18"/>
<text text-anchor="middle" x="76" y="-73.6" font-family="Times,serif" font-size="14.00">cli_options</text>
</g>
<!-- event_filter -->
<g id="node2" class="node">
<title>event_filter</title>
<ellipse fill="none" stroke="black" cx="796" cy="-274.3" rx="63.89" ry="18"/>
<text text-anchor="middle" x="796" y="-270.6" font-family="Times,serif" font-size="14.00">event_filter</text>
</g>
<!-- every_so_often -->
<g id="node3" class="node">
<title>every_so_often</title>
<ellipse fill="none" stroke="black" cx="824" cy="-77.3" rx="79.09" ry="18"/>
<text text-anchor="middle" x="824" y="-73.6" font-family="Times,serif" font-size="14.00">every_so_often</text>
</g>
<!-- event_filter&#45;&gt;every_so_often -->
<g id="edge1" class="edge">
<title>event_filter&#45;&gt;every_so_often</title>
<path fill="none" stroke="black" d="M798.48,-256C803.36,-222.03 814.22,-146.39 820.08,-105.61"/>
<polygon fill="black" stroke="black" points="823.56,-105.97 821.52,-95.57 816.63,-104.97 823.56,-105.97"/>
</g>
<!-- example_shared -->
<g id="node4" class="node">
<title>example_shared</title>
<ellipse fill="none" stroke="black" cx="624" cy="-77.3" rx="85.59" ry="18"/>
<text text-anchor="middle" x="624" y="-73.6" font-family="Times,serif" font-size="14.00">example_shared</text>
</g>
<!-- gui_tests -->
<g id="node5" class="node">
<title>gui_tests</title>
<ellipse fill="none" stroke="black" cx="930" cy="-274.3" rx="52.79" ry="18"/>
<text text-anchor="middle" x="930" y="-270.6" font-family="Times,serif" font-size="14.00">gui_tests</text>
</g>
<!-- lib -->
<g id="node6" class="node">
<title>lib</title>
<ellipse fill="none" stroke="black" cx="487" cy="-274.3" rx="27" ry="18"/>
<text text-anchor="middle" x="487" y="-270.6" font-family="Times,serif" font-size="14.00">lib</text>
</g>
<!-- lib&#45;&gt;example_shared -->
<g id="edge2" class="edge">
<title>lib&#45;&gt;example_shared</title>
<path fill="none" stroke="black" d="M497.98,-257.67C521.58,-224.08 577.34,-144.72 606.12,-103.75"/>
<polygon fill="black" stroke="black" points="609.11,-105.58 612,-95.39 603.38,-101.56 609.11,-105.58"/>
</g>
<!-- quarantined_awaiting_warning_fixes -->
<g id="node7" class="node">
<title>quarantined_awaiting_warning_fixes</title>
<ellipse fill="none" stroke="black" cx="334" cy="-77.3" rx="180.07" ry="18"/>
<text text-anchor="middle" x="334" y="-73.6" font-family="Times,serif" font-size="14.00">quarantined_awaiting_warning_fixes</text>
</g>
<!-- lib&#45;&gt;quarantined_awaiting_warning_fixes -->
<g id="edge3" class="edge">
<title>lib&#45;&gt;quarantined_awaiting_warning_fixes</title>
<path fill="none" stroke="black" d="M474.99,-258C448.7,-224.49 385.8,-144.32 353.65,-103.35"/>
<polygon fill="black" stroke="black" points="356.39,-101.17 347.46,-95.46 350.88,-105.49 356.39,-101.17"/>
</g>
<!-- logging_tags -->
<g id="node8" class="node">
<title>logging_tags</title>
<ellipse fill="none" stroke="black" cx="352" cy="-274.3" rx="69.59" ry="18"/>
<text text-anchor="middle" x="352" y="-270.6" font-family="Times,serif" font-size="14.00">logging_tags</text>
</g>
<!-- logging_tags&#45;&gt;cli_options -->
<g id="edge4" class="edge">
<title>logging_tags&#45;&gt;cli_options</title>
<path fill="none" stroke="black" d="M328.56,-257.32C290.03,-230.98 210.99,-176.63 145,-129.3 131.92,-119.92 117.59,-109.37 105.39,-100.31"/>
<polygon fill="black" stroke="black" points="107.44,-97.48 97.33,-94.31 103.26,-103.09 107.44,-97.48"/>
</g>
<!-- main -->
<g id="node9" class="node">
<title>main</title>
<ellipse fill="none" stroke="black" cx="806" cy="-617.3" rx="33.6" ry="18"/>
<text text-anchor="middle" x="806" y="-613.6" font-family="Times,serif" font-size="14.00">main</text>
</g>
<!-- main&#45;&gt;cli_options -->
<g id="edge5" class="edge">
<title>main&#45;&gt;cli_options</title>
<path fill="none" stroke="black" d="M774.94,-610.04C675.57,-588.49 361.56,-508.46 184,-326.3 121.24,-261.92 91.95,-155.13 81.17,-105.37"/>
<polygon fill="black" stroke="black" points="84.55,-104.46 79.09,-95.38 77.7,-105.88 84.55,-104.46"/>
</g>
<!-- view_model_collection -->
<g id="node10" class="node">
<title>view_model_collection</title>
<ellipse fill="none" stroke="black" cx="846" cy="-453.3" rx="113.98" ry="18"/>
<text text-anchor="middle" x="846" y="-449.6" font-family="Times,serif" font-size="14.00">view_model_collection</text>
</g>
<!-- main&#45;&gt;view_model_collection -->
<g id="edge6" class="edge">
<title>main&#45;&gt;view_model_collection</title>
<path fill="none" stroke="black" d="M810.21,-599.27C817.12,-571.27 830.95,-515.27 839.25,-481.65"/>
<polygon fill="black" stroke="black" points="842.73,-482.14 841.73,-471.59 835.94,-480.46 842.73,-482.14"/>
</g>
<!-- view_model_collection&#45;&gt;cli_options -->
<g id="edge8" class="edge">
<title>view_model_collection&#45;&gt;cli_options</title>
<path fill="none" stroke="black" d="M734.59,-449.61C612.69,-441.95 415.68,-415.35 273,-326.3 182.29,-269.69 115.71,-155.98 88.95,-104.59"/>
<polygon fill="black" stroke="black" points="91.95,-102.76 84.28,-95.46 85.72,-105.95 91.95,-102.76"/>
</g>
<!-- view_model_collection&#45;&gt;event_filter -->
<g id="edge9" class="edge">
<title>view_model_collection&#45;&gt;event_filter</title>
<path fill="none" stroke="black" d="M841.11,-435.01C832.39,-404.13 814.08,-339.31 803.67,-302.45"/>
<polygon fill="black" stroke="black" points="806.92,-301.08 800.83,-292.41 800.18,-302.98 806.92,-301.08"/>
</g>
<!-- view_model_collection&#45;&gt;gui_tests -->
<g id="edge10" class="edge">
<title>view_model_collection&#45;&gt;gui_tests</title>
<path fill="none" stroke="black" d="M854.05,-435.33C868.79,-404.27 900.19,-338.12 917.65,-301.33"/>
<polygon fill="black" stroke="black" points="920.84,-302.76 921.97,-292.22 914.52,-299.76 920.84,-302.76"/>
</g>
<!-- view_model_collection&#45;&gt;lib -->
<g id="edge11" class="edge">
<title>view_model_collection&#45;&gt;lib</title>
<path fill="none" stroke="black" d="M782.94,-438.28C714.5,-420.73 604.51,-385.56 526,-326.3 516.56,-319.18 508.25,-309.2 501.75,-299.96"/>
<polygon fill="black" stroke="black" points="504.54,-297.83 496.09,-291.44 498.71,-301.7 504.54,-297.83"/>
</g>
<!-- view_model_collection&#45;&gt;logging_tags -->
<g id="edge12" class="edge">
<title>view_model_collection&#45;&gt;logging_tags</title>
<path fill="none" stroke="black" d="M790,-437.63C712.49,-416.59 568.73,-375.01 451,-326.3 429.76,-317.51 406.89,-305.89 388.49,-295.95"/>
<polygon fill="black" stroke="black" points="390.03,-292.81 379.57,-291.09 386.67,-298.95 390.03,-292.81"/>
</g>
<!-- qml_message_interceptor -->
<g id="node11" class="node">
<title>qml_message_interceptor</title>
<ellipse fill="none" stroke="black" cx="1216" cy="-77.3" rx="129.98" ry="18"/>
<text text-anchor="middle" x="1216" y="-73.6" font-family="Times,serif" font-size="14.00">qml_message_interceptor</text>
</g>
<!-- view_model_collection&#45;&gt;qml_message_interceptor -->
<g id="edge13" class="edge">
<title>view_model_collection&#45;&gt;qml_message_interceptor</title>
<path fill="none" stroke="black" d="M952.75,-447.04C1037.83,-436.59 1152.11,-407.19 1211,-326.3 1259.41,-259.81 1238.37,-154.5 1224.56,-105.3"/>
<polygon fill="black" stroke="black" points="1227.84,-104.03 1221.67,-95.41 1221.12,-105.99 1227.84,-104.03"/>
</g>
<!-- resource_helper -->
<g id="node12" class="node">
<title>resource_helper</title>
<ellipse fill="none" stroke="black" cx="623" cy="-274.3" rx="85.29" ry="18"/>
<text text-anchor="middle" x="623" y="-270.6" font-family="Times,serif" font-size="14.00">resource_helper</text>
</g>
<!-- view_model_collection&#45;&gt;resource_helper -->
<g id="edge14" class="edge">
<title>view_model_collection&#45;&gt;resource_helper</title>
<path fill="none" stroke="black" d="M824.62,-435.33C784.39,-403.4 697.41,-334.36 651.97,-298.3"/>
<polygon fill="black" stroke="black" points="654,-295.44 643.99,-291.96 649.65,-300.92 654,-295.44"/>
</g>
<!-- usage_log_t -->
<g id="node15" class="node">
<title>usage_log_t</title>
<ellipse fill="none" stroke="black" cx="1429" cy="-77.3" rx="64.99" ry="18"/>
<text text-anchor="middle" x="1429" y="-73.6" font-family="Times,serif" font-size="14.00">usage_log_t</text>
</g>
<!-- view_model_collection&#45;&gt;usage_log_t -->
<g id="edge15" class="edge">
<title>view_model_collection&#45;&gt;usage_log_t</title>
<path fill="none" stroke="black" d="M927.81,-440.68C1011.86,-425.57 1143.41,-392.8 1238,-326.3 1324.25,-265.67 1389.46,-154.52 1415.99,-104.23"/>
<polygon fill="black" stroke="black" points="1419.13,-105.78 1420.64,-95.29 1412.92,-102.55 1419.13,-105.78"/>
</g>
<!-- timer_service -->
<g id="node13" class="node">
<title>timer_service</title>
<ellipse fill="none" stroke="black" cx="995" cy="-77.3" rx="73.39" ry="18"/>
<text text-anchor="middle" x="995" y="-73.6" font-family="Times,serif" font-size="14.00">timer_service</text>
</g>
<!-- timer_service_test -->
<g id="node14" class="node">
<title>timer_service_test</title>
<ellipse fill="none" stroke="black" cx="1103" cy="-274.3" rx="96.38" ry="18"/>
<text text-anchor="middle" x="1103" y="-270.6" font-family="Times,serif" font-size="14.00">timer_service_test</text>
</g>
<!-- timer_service_test&#45;&gt;timer_service -->
<g id="edge7" class="edge">
<title>timer_service_test&#45;&gt;timer_service</title>
<path fill="none" stroke="black" d="M1093.6,-256.34C1074.66,-222.13 1031.75,-144.67 1009.3,-104.13"/>
<polygon fill="black" stroke="black" points="1012.36,-102.42 1004.45,-95.37 1006.23,-105.81 1012.36,-102.42"/>
</g>
</g>
</svg>
